<svg xmlns="http://www.w3.org/2000/svg" width="58" height="58" viewBox="0 0 58 58">
  <path fill="#000000" d="M30.7660242,57.5999966 L3.17907821,57.5999966 C1.42280752,57.5999966 0,56.1763071 0,54.4207204 L0,3.17905301 C0,1.42301992 1.42303072,0 3.17907821,0 L54.4211428,0 C56.1767427,0 57.5999966,1.42301992 57.5999966,3.17905301 L57.5999966,54.4207204 C57.5999966,56.1765303 56.1765195,57.5999966 54.4211428,57.5999966 L39.7431636,57.5999966 L39.7431636,35.2941039 L47.2302224,35.2941039 L48.3513031,26.6011016 L39.7431636,26.6011016 L39.7431636,21.0511679 C39.7431636,18.5343433 40.442052,16.819211 44.0511454,16.819211 L48.6543703,16.8171986 L48.6543703,9.04210866 C47.8582603,8.93616907 45.1257381,8.69948348 41.9466599,8.69948348 C35.3097987,8.69948348 30.7660242,12.7506304 30.7660242,20.1902496 L30.7660242,26.6011016 L23.259745,26.6011016 L23.259745,35.2941039 L30.7660242,35.2941039 L30.7660242,57.5999966 L30.7660242,57.5999966 Z"/>
</svg>
