<svg xmlns="http://www.w3.org/2000/svg" width="58" height="58" viewBox="0 0 58 58">
  <path fill="#000000" d="M28.8000559,0 C20.9783879,0 19.997622,0.033153598 16.9257962,0.17331239 C13.8603724,0.313126781 11.7667973,0.800024352 9.93490501,1.51202031 C8.04105072,2.24790947 6.43494442,3.23267621 4.83375331,4.83375331 C3.23267621,6.43494442 2.24790947,8.04105072 1.51202031,9.93490501 C0.800024352,11.7667973 0.313126781,13.8603724 0.17331239,16.9257962 C0.033153598,19.997622 0,20.9783879 0,28.8000559 C0,36.6216086 0.033153598,37.6023746 0.17331239,40.6742004 C0.313126781,43.7396242 0.800024352,45.8331993 1.51202031,47.6650916 C2.24790947,49.5589458 3.23267621,51.1650522 4.83375331,52.7662433 C6.43494442,54.3673204 8.04105072,55.3520871 9.93490501,56.0880915 C11.7667973,56.7999722 13.8603724,57.2868698 16.9257962,57.4266842 C19.997622,57.566843 20.9783879,57.5999966 28.8000559,57.5999966 C36.6216086,57.5999966 37.6023746,57.566843 40.6742004,57.4266842 C43.7396242,57.2868698 45.8331993,56.7999722 47.6650916,56.0880915 C49.5589458,55.3520871 51.1650522,54.3673204 52.7662433,52.7662433 C54.3673204,51.1650522 55.3520871,49.5589458 56.0880915,47.6650916 C56.7999722,45.8331993 57.2868698,43.7396242 57.4266842,40.6742004 C57.566843,37.6023746 57.5999966,36.6216086 57.5999966,28.8000559 C57.5999966,20.9783879 57.566843,19.997622 57.4266842,16.9257962 C57.2868698,13.8603724 56.7999722,11.7667973 56.0880915,9.93490501 C55.3520871,8.04105072 54.3673204,6.43494442 52.7662433,4.83375331 C51.1650522,3.23267621 49.5589458,2.24790947 47.6650916,1.51202031 C45.8331993,0.800024352 43.7396242,0.313126781 40.6742004,0.17331239 C37.6023746,0.033153598 36.6216086,0 28.8000559,0 Z M28.8000559,5.18918009 C36.4899098,5.18918009 37.400825,5.21856089 40.4376696,5.35711888 C43.2456406,5.48515887 44.7705789,5.95433485 45.7854129,6.34874482 C47.1297224,6.87119599 48.0891115,7.49527875 49.0968571,8.50313949 C50.1047178,9.51088503 50.7288006,10.4702742 51.2512517,11.8145837 C51.6456617,12.8294176 52.1148377,14.3543559 52.2428777,17.162327 C52.3814357,20.1991716 52.4108165,21.1100867 52.4108165,28.8000559 C52.4108165,36.4899098 52.3814357,37.400825 52.2428777,40.4376696 C52.1148377,43.2456406 51.6456617,44.7705789 51.2512517,45.7854129 C50.7288006,47.1297224 50.1047178,48.0891115 49.0968571,49.0968571 C48.0891115,50.1047178 47.1297224,50.7288006 45.7854129,51.2512517 C44.7705789,51.6456617 43.2456406,52.1148377 40.4376696,52.2428777 C37.4012822,52.3814357 36.490481,52.4108165 28.8000559,52.4108165 C21.1095155,52.4108165 20.1988284,52.3814357 17.162327,52.2428777 C14.3543559,52.1148377 12.8294176,51.6456617 11.8145837,51.2512517 C10.4702742,50.7288006 9.51088503,50.1047178 8.50313949,49.0968571 C7.49539275,48.0891115 6.87119599,47.1297224 6.34874482,45.7854129 C5.95433485,44.7705789 5.48515887,43.2456406 5.35711888,40.4376696 C5.21856089,37.400825 5.18918009,36.4899098 5.18918009,28.8000559 C5.18918009,21.1100867 5.21856089,20.1991716 5.35711888,17.162327 C5.48515887,14.3543559 5.95433485,12.8294176 6.34874482,11.8145837 C6.87119599,10.4702742 7.49527875,9.51088503 8.50313949,8.50313949 C9.51088503,7.49527875 10.4702742,6.87119599 11.8145837,6.34874482 C12.8294176,5.95433485 14.3543559,5.48515887 17.162327,5.35711888 C20.1991716,5.21856089 21.1100867,5.18918009 28.8000559,5.18918009 Z M28.8000559,14.0108188 C20.6321076,14.0108188 14.0108188,20.6321076 14.0108188,28.8000559 C14.0108188,36.967889 20.6321076,43.5891778 28.8000559,43.5891778 C36.967889,43.5891778 43.5891778,36.967889 43.5891778,28.8000559 C43.5891778,20.6321076 36.967889,14.0108188 28.8000559,14.0108188 Z M28.8000559,38.3999977 C23.4980398,38.3999977 19.1999989,34.1019568 19.1999989,28.8000559 C19.1999989,23.4980398 23.4980398,19.1999989 28.8000559,19.1999989 C34.1019568,19.1999989 38.3999977,23.4980398 38.3999977,28.8000559 C38.3999977,34.1019568 34.1019568,38.3999977 28.8000559,38.3999977 Z M47.629538,13.4265208 C47.629538,15.3352371 46.0821921,16.8824678 44.1734758,16.8824678 C42.2648735,16.8824678 40.7175288,15.3352371 40.7175288,13.4265208 C40.7175288,11.5178045 42.2648735,9.97045861 44.1734758,9.97045861 C46.0821921,9.97045861 47.629538,11.5178045 47.629538,13.4265208 Z"/>
</svg>
