<svg xmlns="http://www.w3.org/2000/svg" width="167" height="50" viewBox="0 0 167 50">
  <path fill="#E91BB1" d="M15.8610798,10.7890625 L23.756338,1.1953125 C23.8642021,1.05683269 23.9221932,0.886229491 23.9209859,0.7109375 C23.9218594,0.523131957 23.8419402,0.343953023 23.7014554,0.21875 C23.5709592,0.0763333638 23.3853394,-0.00334162544 23.191831,-0.000213467887 L15.155446,-0.000213467887 C14.6808414,-0.0078096674 14.2282307,0.199019023 13.924507,0.5625 L8.66361502,7.140625 L8.66361502,0.890625 C8.66316263,0.652673047 8.56716933,0.4247962 8.39704225,0.2578125 C8.23021298,0.0881028959 8.00032406,-0.0052225634 7.76197183,-0.000213467887 L0.901643192,-0.000213467887 C0.662118645,-0.00318346346 0.432055872,0.0930427529 0.26657277,0.265625 C0.0933747365,0.430519745 -0.00319482229,0.659764555 -7.68277081e-05,0.8984375 L-7.68277081e-05,22.34375 C-0.00319482229,22.5824229 0.0933747365,22.8116678 0.26657277,22.9765625 C0.43495007,23.1439605 0.663804836,23.2368661 0.901643192,23.234375 L7.76197183,23.234375 C8.00037861,23.2364589 8.22974025,23.1435463 8.39906035,22.9762953 C8.56838046,22.8090443 8.6636242,22.5813183 8.66361502,22.34375 L8.66361502,15.5703125 L14.4576526,22.7109375 C14.7527528,23.0635496 15.1970413,23.2574156 15.65723,23.234375 L24.2816432,23.234375 C24.475921,23.2380564 24.6631241,23.1617456 24.799108,23.0234375 C24.9367632,22.8994706 25.0163213,22.7239325 25.0186845,22.5390625 C25.0203547,22.3757412 24.9740178,22.2154966 24.8853521,22.078125 L15.8610798,10.7890625 Z M29.1897183,20.875 C31.3745696,22.4791667 34.3356182,23.2786458 38.0728638,23.2734628 C41.8101095,23.2682292 44.7685446,22.46875 46.948169,20.875 C49.1382473,19.28125 50.2333397,16.7916667 50.2333397,13.40625 L50.2333397,0.90625 C50.2359434,0.67222934 50.1391018,0.448015126 49.9667136,0.2890625 C49.8072117,0.109803916 49.5798557,0.00502565003 49.3394836,-0.000128171636 L42.37723,-0.000128171636 C42.1393917,-0.00249113757 41.9105369,0.0904144948 41.7421596,0.2578125 C41.5724829,0.421889255 41.4763779,0.647214534 41.4755869,0.8828125 L41.4755869,13.859375 C41.5214236,14.6518173 41.1796334,15.4173833 40.5582629,15.9140625 C39.8374746,16.4253798 38.9642935,16.6786932 38.0807042,16.6328125 C37.1944717,16.6804811 36.3182335,16.4270827 35.5953052,15.9140625 C34.9739347,15.4173833 34.6321445,14.6518173 34.6779812,13.859375 L34.6779812,0.8828125 C34.680899,0.646470412 34.5841969,0.419744968 34.4114085,0.2578125 C34.2469924,0.0893119846 34.0200004,-0.00398931929 33.7841784,-0.000128171636 L26.8219249,-0.000128171636 C26.5822144,-0.00414139719 26.3517816,0.092239583 26.1868545,0.265625 C26.0144663,0.424577626 25.9176247,0.64879184 25.9202284,0.8828125 L25.9202284,13.3828125 C25.9202284,16.7786458 27.0127074,19.2760417 29.1975587,20.875 L29.1897183,20.875 Z M55.1256808,23.21875 L74.5933333,23.21875 C74.8317401,23.2208339 75.0611018,23.1279213 75.2304219,22.9606703 C75.399742,22.7934193 75.4951125,22.5656933 75.4951125,22.328125 L75.4951125,17.328125 C75.499168,17.0864255 75.406277,16.8530746 75.236957,16.6799552 C75.067637,16.5068359 74.8359227,16.4082978 74.5933333,16.40625 L63.2326291,16.40625 L63.2326291,0.8984375 C63.2358239,0.659764555 63.1392544,0.430519745 62.9660563,0.265625 C62.8005732,0.0930427529 62.5705105,-0.00318346346 62.3309859,-0.000112780841 L55.1335211,-0.000112780841 C54.8961437,-0.00388260074 54.66823,0.0926363435 54.5062911,0.265625 C54.333093,0.430519745 54.2365235,0.659764555 54.2396415,0.8984375 L54.2396415,22.34375 C54.2396415,22.8356286 54.6398875,23.234375 55.1335211,23.234375 L55.1256808,23.21875 Z M74.5619718,7.140625 L81.7202347,7.140625 L81.7202347,22.34375 C81.7202256,22.5813183 81.8154693,22.8090443 81.9847894,22.9762953 C82.1541095,23.1435463 82.3834712,23.2364589 82.6218779,23.2344093 L89.4822066,23.2344093 C89.7206134,23.2364589 89.949975,23.1435463 90.1192951,22.9762953 C90.2886152,22.8090443 90.3838589,22.5813183 90.3838498,22.34375 L90.3838498,7.140625 L97.5499531,7.140625 C98.0431327,7.13646116 98.4431105,6.74137113 98.4515962,6.25 L98.4515962,0.8984375 C98.4511439,0.660485547 98.3551506,0.4326087 98.1850235,0.265625 C98.0195404,0.0930427529 97.7894776,-0.00318346346 97.5499531,-7.65545557e-05 L74.5619718,-7.65545557e-05 C74.3224473,-0.00318346346 74.0923845,0.0930427529 73.9269014,0.265625 C73.7537034,0.430519745 73.6571338,0.659764555 73.6602518,0.8984375 L73.6602518,6.25 C73.6571338,6.48867294 73.7537034,6.71791775 73.9269014,6.8828125 C74.0957711,7.04946923 74.3243012,7.14224306 74.5619718,7.140625 Z M125.202958,13.390625 L125.202958,0.890625 C125.201841,0.657372743 125.105619,0.434592784 124.936385,0.2734375 C124.770902,0.100855253 124.540839,0.00462903654 124.301315,0.0078125 L117.339061,0.0078125 C117.101223,0.00532136243 116.872368,0.0982269948 116.703991,0.265625 C116.531202,0.427557468 116.4345,0.654282912 116.437418,0.890625 L116.437418,13.859375 C116.483255,14.6518173 116.141464,15.4173833 115.520094,15.9140625 C114.005788,16.8731934 112.071442,16.8731934 110.557136,15.9140625 C109.935766,15.4173833 109.593975,14.6518173 109.639812,13.859375 L109.639812,0.8828125 C109.64273,0.646470412 109.546028,0.419744968 109.373239,0.2578125 C109.208823,0.0893119846 108.981831,-0.00398931929 108.746009,-0.00012287503 L101.775915,-0.00012287503 C101.538538,-0.00388260074 101.310624,0.0926363435 101.148685,0.265625 C100.976297,0.424577626 100.879456,0.64879184 100.882059,0.8828125 L100.882059,13.3828125 C100.882059,16.7630208 101.974538,19.2526042 104.15939,20.8515625 C106.344241,22.4505208 109.30529,23.25 113.042535,23.25 C116.774554,23.25 119.732989,22.4505208 121.91784,20.8515625 C124.102692,19.2526042 125.197731,16.7708333 125.202958,13.40625 L125.202958,13.390625 Z M142.961408,22.390625 C143.204583,22.9324934 143.763022,23.2638647 144.356995,23.21875 L151.922958,23.21875 C152.114704,23.2212008 152.299011,23.1449144 152.432582,23.0078125 C152.56354,22.8953389 152.642818,22.7345252 152.652113,22.5625 C152.656718,22.4371118 152.635367,22.3121214 152.58939,22.1953125 L148.488873,14.5546875 C150.820078,13.2109375 151.985681,11.03125 151.985681,8.015625 C152.082938,5.74675963 151.093696,3.56656721 149.319953,2.140625 C147.516667,0.713541667 145.107058,-7.65545557e-05 142.091127,-7.65545557e-05 L129.130986,-7.65545557e-05 C128.891461,-0.00318346346 128.661399,0.0930427529 128.495915,0.265625 C128.325788,0.4326087 128.229795,0.660485547 128.229343,0.8984375 L128.229343,22.34375 C128.229343,22.5813183 128.324577,22.8090443 128.493897,22.9762953 C128.663217,23.1435463 128.892579,23.2364589 129.130986,23.2344093 L136.328451,23.2344093 C136.81595,23.2258515 137.206648,22.8295907 137.206573,22.34375 L137.206573,15.8359375 L140.005587,15.8359375 L142.961408,22.390625 Z M137.206573,6.171875 L141.369812,6.171875 C141.820477,6.14533739 142.253073,6.35200907 142.514507,6.71875 C142.774124,7.09517588 142.908509,7.54335669 142.898685,8 C142.91483,8.43827913 142.772987,8.86783831 142.498826,9.2109375 C142.218685,9.5387285 141.801304,9.71779538 141.369812,9.6953125 L137.206573,9.6953125 L137.206573,6.171875 Z M15.8610798,37.0625 L23.756338,27.46875 C23.8683171,27.3325095 23.9268269,27.1603804 23.9209859,26.984375 C23.9218594,26.7965695 23.8419402,26.6173905 23.7014554,26.4921875 C23.5709592,26.3497709 23.3853394,26.2700959 23.191831,26.2734375 L15.155446,26.2734375 C14.6808414,26.2655484 14.2282307,26.4724565 13.924507,26.8359375 L8.66361502,33.4140625 L8.66361502,27.1640625 C8.66316263,26.9261105 8.56716933,26.6982337 8.39704225,26.53125 C8.23155915,26.3586678 8.00149638,26.2624415 7.76197183,26.2655484 L0.901643192,26.2655484 C0.657301903,26.2704538 0.426488651,26.3783516 0.26657277,26.5625 C0.0933747365,26.7273947 -0.00319482229,26.9566396 -7.68277081e-05,27.1953125 L-7.68277081e-05,48.6171875 C0.00530511432,48.8449941 0.101190968,49.0613753 0.26657277,49.21875 C0.43415228,49.3882722 0.662842209,49.4839242 0.901643192,49.484375 L7.76197183,49.484375 C8.25816062,49.4801308 8.65935566,49.0803621 8.66361502,48.5859375 L8.66361502,41.84375 L14.4576526,48.984375 C14.7519381,49.3388989 15.1959377,49.5355304 15.65723,49.515625 L24.2816432,49.515625 C24.4769047,49.5163383 24.6639273,49.4372774 24.799108,49.296875 C24.938378,49.1740879 25.0182773,48.997797 25.0186845,48.8125 C25.0203547,48.6491787 24.9740178,48.4889341 24.8853521,48.3515625 L15.8610798,37.0625 Z M47.2225822,40.8515625 C49.5590141,39.5026042 50.7246166,37.3203125 50.7193897,34.3046875 C50.8141197,32.0363097 49.8253678,29.8571983 48.053662,28.4296875 C46.2817371,26.9921875 43.8669014,26.2733247 40.8248357,26.2733247 L27.8490141,26.2733247 C27.6116367,26.2695549 27.383723,26.3660738 27.221784,26.5390625 C27.048586,26.7039572 26.9520164,26.9332021 26.9551344,27.171875 L26.9551344,48.6171875 C26.95939,49.1086137 27.3558897,49.5071695 27.8490141,49.515625 L35.0464789,49.515625 C35.2852799,49.5151742 35.5139698,49.4195222 35.6815493,49.25 C35.8547473,49.0851053 35.9513169,48.8558604 35.9481221,48.6171875 L35.9481221,42.109375 L38.7471362,42.109375 L41.6794366,48.6796875 C41.9219659,49.2230104 42.4797094,49.5570911 43.0750235,49.515625 L50.6409859,49.515625 C50.8357027,49.51369 51.0217376,49.4350467 51.1584507,49.296875 C51.2857733,49.1824962 51.3619807,49.022186 51.3701408,48.8515625 C51.379248,48.7259178 51.3577288,48.5999419 51.3074178,48.484375 L47.2225822,40.8515625 Z M41.2638967,35.484375 C40.9805843,35.8124308 40.5607983,35.9912873 40.1270423,35.96875 L35.9481221,35.96875 L35.9481221,32.4453125 L40.1113615,32.4453125 C40.5659309,32.4192868 41.0017539,32.629038 41.2638967,33 C41.5214666,33.3744717 41.6557311,33.8195188 41.6480751,34.2734375 C41.6656279,34.7119141 41.5236272,35.1419503 41.248216,35.484375 L41.2638967,35.484375 Z M72.5469953,27.34375 C72.3954376,26.6520095 71.7489461,26.1822854 71.0416432,26.25 L61.7821596,26.25 C61.0766993,26.1828396 60.4327252,26.6531843 60.2846479,27.34375 L53.0244601,48.5859375 C53.008083,48.6842231 53.008083,48.7845269 53.0244601,48.8828125 C53.0402061,49.044211 53.1190659,49.1929507 53.2439906,49.296875 C53.3791713,49.4372774 53.5661939,49.5163383 53.7614554,49.5156298 L60.0337559,49.5156298 C60.7299528,49.5111503 61.339824,49.0498052 61.5312676,48.3828125 L62.3623474,46.0390625 L70.4771362,46.0390625 L71.308216,48.3828125 C71.5004697,49.0525755 72.1144616,49.5146187 72.8135681,49.5156298 L79.0858685,49.5156298 C79.2805853,49.51369 79.4666202,49.4350467 79.6033333,49.296875 C79.7260136,49.1921339 79.8021168,49.0432771 79.8150235,48.8828125 C79.8307152,48.7844718 79.8307152,48.6842782 79.8150235,48.5859375 L72.5469953,27.34375 Z M64.0480282,39.5859375 L66.4001408,32.6796875 L68.7522535,39.5859375 L64.0480282,39.5859375 Z M106.386056,26.3046875 L100.286244,26.3046875 C99.6756092,26.3017661 99.1188116,26.6523379 98.8592958,27.203125 L94.5157277,35.15625 L90.1643192,27.171875 C89.9048035,26.6210879 89.3480058,26.2705161 88.7373709,26.2733609 L82.6375587,26.2733609 C82.3980341,26.270254 82.1679714,26.3664803 82.0024883,26.5390625 C81.8323612,26.7060462 81.7363679,26.933923 81.7359155,27.171875 L81.7359155,48.6171875 C81.7401749,49.1116121 82.1413699,49.5113808 82.6375587,49.515625 L88.6668075,49.515625 C88.9056085,49.5151742 89.1342984,49.4195222 89.3018779,49.25 C89.475076,49.0851053 89.5716455,48.8558604 89.5684507,48.6171875 L89.5684507,38.328125 L91.9989671,43.109375 C92.1138593,43.3171793 92.2747341,43.4961842 92.4693897,43.6328125 C92.733088,43.8436309 93.0646221,43.9518986 93.4023944,43.9375 L95.6525822,43.9375 C95.928336,43.9321508 96.1981729,43.8568651 96.4366197,43.71875 C96.6955623,43.5843895 96.9044185,43.3707992 97.0324883,43.109375 L99.4630047,38.328125 L99.4630047,48.6171875 C99.4671834,49.1086137 99.8636831,49.5071695 100.356808,49.515625 L106.386056,49.515625 C106.882245,49.5113808 107.28344,49.1116121 107.2877,48.6171875 L107.2877,27.171875 C107.287247,26.933923 107.191254,26.7060462 107.021127,26.5390625 C106.861288,26.3723634 106.640932,26.2766523 106.409577,26.2733609 L106.386056,26.3046875 Z M132.110329,45.1171875 L123.548638,45.1171875 L123.548638,43.75 L130.738263,43.75 C130.891619,43.7486523 131.038201,43.6868572 131.145962,43.578125 C131.259366,43.4704364 131.321985,43.3201189 131.318451,43.1640625 L131.318451,40.3671875 C131.320744,40.2136459 131.258148,40.0662178 131.145962,39.9609375 C131.038201,39.8522053 130.891619,39.7904102 130.738263,39.7890625 L123.548638,39.7890625 L123.548638,38.4375 L131.92216,38.4375 C132.076249,38.4397853 132.224203,38.3774118 132.329859,38.265625 C132.442872,38.1609198 132.505631,38.0131074 132.502347,37.859375 L132.502347,34.8359375 C132.498126,34.5184065 132.240824,34.2620188 131.92216,34.2578125 L118.530798,34.2578125 C118.212134,34.2620188 117.954832,34.5184065 117.95061,34.8359375 L117.95061,48.6953125 C117.954832,49.0128435 118.212134,49.2692312 118.530798,49.2735597 L132.13385,49.2735597 C132.288131,49.2767093 132.436471,49.2141732 132.541549,49.1015625 C132.653735,48.9962822 132.716331,48.8488541 132.714098,48.6953125 L132.714098,45.671875 C132.714098,45.3512972 132.455543,45.0902119 132.13385,45.0859375 L132.110329,45.1171875 Z M142.694836,44.1640625 L138.178779,44.1640625 C138.025245,44.1645458 137.878343,44.2264756 137.77108,44.3359375 C137.657676,44.4436261 137.595057,44.5939436 137.598592,44.75 L137.598592,48.65625 C137.596298,48.8097916 137.658894,48.9572197 137.77108,49.0625 C137.876159,49.1751107 138.024498,49.2376468 138.178779,49.234375 L142.694836,49.234375 C142.851088,49.2360084 143.001216,49.1739126 143.110376,49.0625 C143.219496,48.9551215 143.281511,48.8090604 143.282864,48.65625 L143.282864,44.75 C143.282727,44.5946521 143.220684,44.4457167 143.110376,44.3359375 C142.999261,44.2274344 142.8504,44.1658625 142.694836,44.1640625 Z M160.265117,34.2578125 L155.7177,34.2578125 C155.260684,34.2127274 154.843755,34.5200909 154.753333,34.96875 L152.275775,43.1796875 L149.798216,34.96875 C149.73358,34.7810109 149.619917,34.6138194 149.46892,34.484375 C149.294201,34.3305302 149.066859,34.2494254 148.83385,34.2578125 L144.294272,34.2578125 C144.167103,34.255645 144.044834,34.3066454 143.957136,34.3984375 C143.876424,34.4646808 143.825617,34.5603095 143.816009,34.6640625 C143.806989,34.7367021 143.806989,34.8101729 143.816009,34.8828125 L148.810329,48.6328125 C148.939782,49.0393028 149.332145,49.3042561 149.759014,49.2734375 L154.769014,49.2734375 C155.222934,49.3017572 155.632197,49.0024785 155.741221,48.5625 L160.7277,34.8828125 C160.73672,34.8101729 160.73672,34.7367021 160.7277,34.6640625 C160.718092,34.5603095 160.667285,34.4646808 160.586573,34.3984375 C160.504539,34.3124623 160.39194,34.2619727 160.272958,34.2578125 L160.265117,34.2578125 Z M166.357089,44.3359375 C166.249328,44.2272053 166.102745,44.1654102 165.94939,44.1640625 L161.433333,44.1640625 C161.279799,44.1645458 161.132897,44.2264756 161.025634,44.3359375 C160.91223,44.4436261 160.849611,44.5939436 160.853146,44.75 L160.853146,48.65625 C160.850852,48.8097916 160.913448,48.9572197 161.025634,49.0625 C161.130713,49.1751107 161.279052,49.2376468 161.433333,49.234375 L165.95723,49.234375 C166.111319,49.2366603 166.259274,49.1742868 166.36493,49.0625 C166.47405,48.9551215 166.536065,48.8090604 166.537418,48.65625 L166.537418,44.75 C166.537281,44.5946521 166.475238,44.4457167 166.36493,44.3359375 L166.357089,44.3359375 Z"/>
</svg>
