<svg xmlns="http://www.w3.org/2000/svg" width="34" height="27" viewBox="0 0 34 27">
  <path fill="#000000" d="M30.2399974,6.52403052 L30.2399974,2.97733308 L3.02399974,2.97733308 L3.02399974,6.52332733 L16.6320325,13.2230133 L30.2399974,6.52403052 Z M30.2399974,9.8527901 L16.6319647,16.5518062 L3.02399974,9.85215349 L3.02399974,23.8186647 L30.2399974,23.8186647 L30.2399974,9.8527901 Z M3.02399974,0 L30.2399974,0 C31.9101064,0 33.2639972,1.33299743 33.2639972,2.97733308 L33.2639972,23.8186647 C33.2639972,25.4630003 31.9101064,26.7959977 30.2399974,26.7959977 L3.02399974,26.7959977 C1.3538908,26.7959977 0,25.4630003 0,23.8186647 L0,2.97733308 C0,1.33299743 1.3538908,0 3.02399974,0 Z"/>
</svg>
