<svg xmlns="http://www.w3.org/2000/svg" width="58" height="41" viewBox="0 0 58 41">
  <path fill="#000000" d="M22.8527986,27.9238975 L22.8509986,11.6252897 L38.4137977,19.8026916 L22.8527986,27.9238975 Z M57.0239966,8.80099508 C57.0239966,8.80099508 56.4605966,4.80383851 54.7343967,3.04363902 C52.5437969,0.732358756 50.088597,0.721481957 48.9635971,0.587337565 C40.9031976,0 28.8125983,0 28.8125983,0 L28.7873983,0 C28.7873983,0 16.696799,0 8.63639949,0.587337565 C7.50959955,0.721481957 5.0561997,0.732358756 2.86379983,3.04363902 C1.13759993,4.80383851 0.575999966,8.80099508 0.575999966,8.80099508 C0.575999966,8.80099508 0,13.4960668 0,18.1893265 L0,22.5907307 C0,27.2858024 0.575999966,31.9790621 0.575999966,31.9790621 C0.575999966,31.9790621 1.13759993,35.9762187 2.86379983,37.736417 C5.0561997,40.0476984 7.93439953,39.9751872 9.21599945,40.2162864 C13.8239992,40.6622268 28.7999983,40.7999976 28.7999983,40.7999976 C28.7999983,40.7999976 40.9031976,40.7818704 48.9635971,40.1945328 C50.088597,40.0585752 52.5437969,40.0476984 54.7343967,37.736417 C56.4605966,35.9762187 57.0239966,31.9790621 57.0239966,31.9790621 C57.0239966,31.9790621 57.5999966,27.2858024 57.5999966,22.5907307 L57.5999966,18.1893265 C57.5999966,13.4960668 57.0239966,8.80099508 57.0239966,8.80099508 L57.0239966,8.80099508 Z"/>
</svg>
